<svg width="270" height="360" viewBox="0 0 270 360" fill="none" xmlns="http://www.w3.org/2000/svg">
<path d="M0.232028 354.144C-0.00307369 354.938 0.450311 355.773 1.24469 356.008L14.1897 359.839C14.9841 360.074 15.8186 359.62 16.0537 358.826C16.2888 358.032 15.8354 357.197 15.041 356.962L3.53435 353.557L6.9397 342.05C7.17478 341.256 6.7214 340.421 5.92702 340.186C5.13266 339.951 4.29811 340.404 4.06303 341.199L0.232028 354.144ZM268.229 0.135664C188.563 24.6522 150.629 48.7469 134.156 73.9843C117.613 99.3299 122.946 125.498 128.504 153.053C134.086 180.732 139.977 210.054 125.759 242.768C111.527 275.512 77.0083 311.933 0.954298 353.251L2.38641 355.887C78.6768 314.441 113.887 277.608 128.51 243.963C143.146 210.288 137.017 180.087 131.445 152.46C125.848 124.71 120.894 99.7921 136.668 75.624C152.514 51.3477 189.505 27.5012 269.112 3.00296L268.229 0.135664Z" fill="black"/>
</svg>
