<svg width="263" height="239" viewBox="0 0 263 239" fill="none" xmlns="http://www.w3.org/2000/svg">
<path d="M9.563 3.14656L10.2101 1.79334L7.50371 0.499048L6.85656 1.85227L9.563 3.14656ZM134.557 115.735L135.251 117.065L134.557 115.735ZM261.817 230.162C262.474 229.658 262.599 228.716 262.095 228.059L253.884 217.343C253.38 216.685 252.438 216.561 251.781 217.065C251.123 217.569 250.999 218.51 251.503 219.168L258.801 228.693L249.276 235.992C248.619 236.495 248.494 237.437 248.998 238.095C249.502 238.752 250.444 238.877 251.101 238.373L261.817 230.162ZM6.85656 1.85227C-0.0196235 16.2307 -0.957829 27.8652 2.7452 37.2675C6.43837 46.6448 14.6131 53.4527 25.2038 58.4903C46.3271 68.5379 77.9289 71.9407 106.269 74.201C120.507 75.3365 133.921 76.1816 144.954 77.4166C150.464 78.0334 155.338 78.7432 159.386 79.6253C163.458 80.5127 166.584 81.5517 168.667 82.7751C170.749 83.9974 171.504 85.217 171.529 86.4274C171.558 87.7713 170.725 89.7039 168.172 92.3691C163.109 97.6553 152.309 104.776 133.863 114.405L135.251 117.065C153.681 107.444 164.895 100.128 170.339 94.4442C173.04 91.6245 174.583 88.9393 174.529 86.3642C174.472 83.6556 172.685 81.655 170.186 80.188C167.689 78.722 164.194 77.6025 160.025 76.6941C155.831 75.7803 150.842 75.057 145.288 74.4352C134.192 73.1932 120.667 72.3397 106.508 71.2105C78.0551 68.9413 47.0293 65.5499 26.4924 55.7812C16.2531 50.9106 8.83952 44.5548 5.53651 36.1682C2.24336 27.8066 2.90103 17.0771 9.563 3.14656L6.85656 1.85227ZM133.863 114.405C115.352 124.069 103.282 133.174 96.4621 141.776C89.5943 150.439 87.9838 158.698 90.6551 166.404C93.28 173.977 99.9388 180.7 108.884 186.651C117.861 192.622 129.333 197.942 141.893 202.633C167.019 212.018 196.734 218.972 220.131 223.578C231.837 225.882 241.976 227.602 249.191 228.745C252.798 229.317 255.675 229.745 257.651 230.03C258.639 230.172 259.402 230.279 259.918 230.351C260.177 230.386 260.373 230.413 260.506 230.431C260.572 230.44 260.622 230.447 260.656 230.451C260.673 230.453 260.686 230.455 260.694 230.456C260.699 230.457 260.702 230.457 260.704 230.458C260.706 230.458 260.708 230.458 260.904 228.971C261.101 227.484 261.1 227.484 261.099 227.484C261.097 227.483 261.094 227.483 261.09 227.482C261.082 227.481 261.07 227.48 261.053 227.478C261.021 227.473 260.972 227.467 260.907 227.458C260.778 227.44 260.584 227.414 260.329 227.379C259.818 227.308 259.061 227.202 258.079 227.061C256.116 226.777 253.253 226.352 249.661 225.782C242.475 224.643 232.373 222.93 220.71 220.634C197.37 216.04 167.842 209.122 142.943 199.823C130.491 195.172 119.255 189.947 110.546 184.153C101.804 178.337 95.7956 172.074 93.4896 165.421C91.2299 158.902 92.4243 151.698 98.8129 143.64C105.249 135.522 116.887 126.652 135.251 117.065L133.863 114.405Z" fill="black"/>
</svg>
