<svg width="328" height="302" viewBox="0 0 328 302" fill="none" xmlns="http://www.w3.org/2000/svg">
<path d="M327.246 286.835C327.707 286.147 327.523 285.215 326.835 284.754L315.619 277.24C314.93 276.779 313.999 276.963 313.538 277.652C313.077 278.34 313.261 279.272 313.949 279.733L323.919 286.411L317.24 296.381C316.779 297.069 316.963 298.001 317.651 298.462C318.34 298.923 319.271 298.739 319.732 298.051L327.246 286.835ZM1.08932 4.49743C38.6007 2.2542 64.1954 6.4576 81.3039 15.164C98.3203 23.8236 107.065 36.9998 110.788 53.1112C114.533 69.3131 113.2 88.4986 109.909 109.049C106.609 129.665 101.428 151.215 97.5244 172.542C93.6447 193.74 91.0769 214.505 93.1814 232.97C95.2912 251.481 102.109 267.773 117.057 279.862C131.961 291.915 154.755 299.632 188.498 301.444C222.25 303.257 267.105 299.171 326.291 287.472L325.709 284.529C266.645 296.204 222.062 300.243 188.658 298.449C155.245 296.654 133.164 289.03 118.943 277.529C104.765 266.063 98.2086 250.586 96.1622 232.63C94.1104 214.628 96.6052 194.229 100.475 173.083C104.322 152.067 109.579 130.093 112.872 109.523C116.175 88.8881 117.592 69.226 113.711 52.4357C109.81 35.5549 100.554 21.5944 82.6645 12.4903C64.8668 3.43314 38.6489 -0.754043 0.910234 1.50277L1.08932 4.49743Z" fill="black"/>
</svg>
